<svg width="600" height="461" viewBox="0 0 600 461" fill="none" xmlns="http://www.w3.org/2000/svg">
<path d="M599.501 431.151C601.09 427.427 598.658 423.233 595.344 422.351C579.913 424.722 566.011 410.356 549.854 382.367L527.227 343.188C506.619 307.497 496.011 287.506 523.384 267.044L533.776 259.184C536.246 252.148 529.482 242.054 522.972 242.093C500.678 256.813 477.286 271.258 449.991 287.016C408.697 310.849 369.795 332.369 348.678 342.678C344.991 347.598 351.56 360.592 358.776 360.161L391.599 345.893C437.835 325.744 442.344 328.724 476.286 387.503L492.442 415.491C496.54 422.566 499.619 428.779 502.031 434.306H594.776C596.384 433.169 598.011 431.993 599.482 431.131" fill="#00AFAA"/>
<path d="M392.482 95.391C361.933 57.0543 336.717 23.0883 323.384 0C315.795 6.25225 291.266 13.8765 276.344 18.7568C262.835 22.8139 221.286 36.5335 181.384 59.563C75.7169 120.557 25.4228 193.428 6.81493 269.454C-6.53801 326.332 0.481594 383.367 21.3247 434.326H112.913C106.697 425.271 100.717 415.863 95.0306 406.044C34.4228 301.108 38.1483 170.202 173.933 91.8434C245.325 50.6452 311.56 44.1382 374.795 108.385C381.423 110.149 393.619 102.192 392.482 95.3714" fill="#00AFAA"/>
<path fill-rule="evenodd" clip-rule="evenodd" d="M20.1287 457.395C20.1287 455.771 21.4455 454.455 23.0699 454.455H590.756C592.381 454.455 593.697 455.771 593.697 457.395C593.697 459.018 592.381 460.334 590.756 460.334H23.0699C21.4455 460.334 20.1287 459.018 20.1287 457.395Z" fill="#5B6135"/>
</svg>
