<svg width="50" height="50" viewBox="0 0 50 50" fill="none" xmlns="http://www.w3.org/2000/svg">
<g id="icon/linkedin">
<path id="vector" d="M43.75 9.00735V40.9926C43.75 41.7239 43.4595 42.4253 42.9424 42.9424C42.4253 43.4595 41.7239 43.75 40.9926 43.75H9.00735C8.27606 43.75 7.57471 43.4595 7.05761 42.9424C6.54051 42.4253 6.25 41.7239 6.25 40.9926V9.00735C6.25 8.27606 6.54051 7.57471 7.05761 7.05761C7.57471 6.54051 8.27606 6.25 9.00735 6.25H40.9926C41.7239 6.25 42.4253 6.54051 42.9424 7.05761C43.4595 7.57471 43.75 8.27606 43.75 9.00735V9.00735ZM17.2794 20.5882H11.7647V38.2353H17.2794V20.5882ZM17.7757 14.5221C17.7786 14.1049 17.6994 13.6913 17.5424 13.3048C17.3854 12.9183 17.1539 12.5665 16.861 12.2695C16.5681 11.9725 16.2195 11.7361 15.8352 11.5737C15.451 11.4114 15.0385 11.3264 14.6213 11.3235H14.5221C13.6738 11.3235 12.8602 11.6605 12.2604 12.2604C11.6605 12.8602 11.3235 13.6738 11.3235 14.5221C11.3235 15.3704 11.6605 16.1839 12.2604 16.7838C12.8602 17.3836 13.6738 17.7206 14.5221 17.7206V17.7206C14.9392 17.7309 15.3543 17.6588 15.7437 17.5086C16.133 17.3584 16.4889 17.1329 16.791 16.8451C17.0932 16.5573 17.3357 16.2127 17.5046 15.8312C17.6736 15.4496 17.7657 15.0385 17.7757 14.6213V14.5221ZM38.2353 27.5147C38.2353 22.2096 34.8603 20.1471 31.5074 20.1471C30.4095 20.0921 29.3165 20.3259 28.3372 20.8252C27.358 21.3245 26.5268 22.0718 25.9265 22.9926H25.7721V20.5882H20.5882V38.2353H26.1029V28.8493C26.0232 27.888 26.326 26.9341 26.9456 26.1947C27.5651 25.4554 28.4514 24.9904 29.4118 24.9007H29.6213C31.375 24.9007 32.6765 26.0037 32.6765 28.7831V38.2353H38.1912L38.2353 27.5147Z" fill="#00AFAA"/>
</g>
</svg>
